<svg id="visual" viewBox="0 0 1920 1080" width="1920" height="1080" xmlns="http://www.w3.org/2000/svg" xmlns:xlink="http://www.w3.org/1999/xlink" version="1.1"><rect x="0" y="0" width="1920" height="1080" fill="#23272A"></rect><path d="M0 685L274 684L549 771L823 688L1097 703L1371 760L1646 749L1920 741L1920 1081L1646 1081L1371 1081L1097 1081L823 1081L549 1081L274 1081L0 1081Z" fill="#0af5f5"></path><path d="M0 810L274 811L549 786L823 828L1097 850L1371 756L1646 747L1920 805L1920 1081L1646 1081L1371 1081L1097 1081L823 1081L549 1081L274 1081L0 1081Z" fill="#00e2fe"></path><path d="M0 805L274 843L549 865L823 805L1097 819L1371 884L1646 911L1920 916L1920 1081L1646 1081L1371 1081L1097 1081L823 1081L549 1081L274 1081L0 1081Z" fill="#00cdff"></path><path d="M0 973L274 881L549 881L823 963L1097 951L1371 936L1646 911L1920 886L1920 1081L1646 1081L1371 1081L1097 1081L823 1081L549 1081L274 1081L0 1081Z" fill="#00b8fa"></path><path d="M0 950L274 983L549 998L823 999L1097 1029L1371 965L1646 1024L1920 1008L1920 1081L1646 1081L1371 1081L1097 1081L823 1081L549 1081L274 1081L0 1081Z" fill="#00a1f2"></path></svg>